PathFileType	4	(X/Y/Z)	output.trc
DataRate	CameraRate	NumFrames	NumMarkers	Units	OrigDataRate	OrigDataStartFrame	OrigNumFrames
100	100	15	23	m	100	3466	4621
Frame#	Time	C7			T8			EL			EM			US			RS			AA			Fore_Clus_1			Fore_Clus_2			Fore_Clus_3			Fore_Clus_4			Hum_Clus_1			Hum_Clus_2			Hum_Clus_3			Hum_Clus_4			Thor_Clus_1			Thor_Clus_2			Thor_Clus_3			Thor_Clus_4			IJ			PX			GH			Thor_Clus_5		
		X1	Y1	Z1	X2	Y2	Z2	X3	Y3	Z3	X4	Y4	Z4	X5	Y5	Z5	X6	Y6	Z6	X7	Y7	Z7	X8	Y8	Z8	X9	Y9	Z9	X10	Y10	Z10	X11	Y11	Z11	X12	Y12	Z12	X13	Y13	Z13	X14	Y14	Z14	X15	Y15	Z15	X16	Y16	Z16	X17	Y17	Z17	X18	Y18	Z18	X19	Y19	Z19	X20	Y20	Z20	X21	Y21	Z21	X22	Y22	Z22	X23	Y23	Z23
3465	34.650000	-0.030871	1.444309	-0.133820	-0.061695	1.227782	-0.072582	-0.135345	1.641701	0.089749	-0.107721	1.629695	0.150174	-0.122428	1.916930	0.052015	-0.114730	1.906308	0.005463	-0.158798	1.411064	0.014081	-0.161724	1.870063	0.055013	-0.157961	1.923529	0.046241	-0.153627	1.918535	0.018830	-0.155288	1.861483	0.011408	-0.143256	1.573483	-0.003222	-0.191027	1.550887	0.025929	-0.200833	1.498775	-0.008901	-0.150929	1.508151	-0.038560	0.085882	1.345254	0.006993	0.045099	1.320431	0.076755	0.050162	1.356209	0.031714	0.096096	1.304157	0.040977	0.021439	1.374700	-0.040709	0.032621	1.187948	0.082190	-0.127045	1.394954	-0.011816	0.040169	1.338753	0.061444
3466	34.660000	-0.030848	1.444215	-0.133745	-0.061630	1.227755	-0.072249	-0.136653	1.642012	0.088763	-0.109111	1.630378	0.149298	-0.124989	1.917053	0.049672	-0.117381	1.906223	0.003152	-0.158821	1.411115	0.014149	-0.164058	1.870014	0.052996	-0.160611	1.923446	0.043922	-0.156337	1.918356	0.016545	-0.157640	1.861232	0.009398	-0.144058	1.573344	-0.003976	-0.191722	1.550668	0.025248	-0.201251	1.498415	-0.009450	-0.151460	1.507886	-0.039087	0.085245	1.345122	0.007013	0.045030	1.320712	0.076979	0.050184	1.356357	0.031913	0.096121	1.304340	0.041284	0.021448	1.374737	-0.040527	0.032639	1.188142	0.082609	-0.127001	1.394895	-0.011777	0.040153	1.338939	0.061659
3467	34.670000	-0.030829	1.444132	-0.133661	-0.061574	1.227737	-0.071919	-0.137960	1.642313	0.087786	-0.110506	1.631049	0.148430	-0.127511	1.917150	0.047341	-0.119994	1.906107	0.000856	-0.158854	1.411172	0.014220	-0.166343	1.869989	0.051003	-0.163235	1.923344	0.041635	-0.158887	1.918164	0.014270	-0.160022	1.860980	0.007424	-0.144734	1.573267	-0.004743	-0.192533	1.550511	0.024488	-0.201753	1.498040	-0.010016	-0.150971	1.507861	-0.039149	0.085226	1.345262	0.007252	0.045084	1.320956	0.077204	0.050192	1.356572	0.032132	0.096118	1.304538	0.041587	0.021448	1.374781	-0.040338	0.032643	1.188337	0.083025	-0.126965	1.394834	-0.011724	0.040141	1.339170	0.061894
3468	34.680000	-0.030816	1.444054	-0.133573	-0.061524	1.227721	-0.071594	-0.139267	1.642602	0.086819	-0.111912	1.631706	0.147576	-0.129996	1.917219	0.045034	-0.122563	1.905966	-0.001413	-0.158897	1.411228	0.014288	-0.168702	1.869890	0.049019	-0.165706	1.923249	0.039427	-0.161426	1.917922	0.012141	-0.162365	1.860712	0.005538	-0.145588	1.573126	-0.005515	-0.193207	1.550357	0.023689	-0.202220	1.497646	-0.010588	-0.151401	1.507584	-0.039702	0.085248	1.345437	0.007545	0.045030	1.321249	0.077459	0.050166	1.356742	0.032374	0.096117	1.304760	0.041901	0.021440	1.374827	-0.040147	0.032635	1.188529	0.083437	-0.126940	1.394772	-0.011653	0.040097	1.339366	0.062133
3469	34.690000	-0.030801	1.443990	-0.133480	-0.061480	1.227716	-0.071281	-0.140568	1.642880	0.085861	-0.113320	1.632349	0.146729	-0.132438	1.917263	0.042738	-0.125081	1.905797	-0.003669	-0.158945	1.411289	0.014354	-0.171061	1.869745	0.047006	-0.168199	1.923138	0.037235	-0.163546	1.917787	0.009988	-0.164694	1.860464	0.003638	-0.146228	1.572989	-0.006283	-0.193872	1.550156	0.022875	-0.202628	1.497283	-0.011166	-0.151734	1.507279	-0.040232	0.085286	1.345696	0.007906	0.045054	1.321467	0.077729	0.050074	1.356866	0.032595	0.096112	1.304954	0.042183	0.021428	1.374879	-0.039953	0.032614	1.188719	0.083839	-0.126928	1.394708	-0.011572	0.040039	1.339555	0.062405
3470	34.700000	-0.030781	1.443941	-0.133382	-0.061441	1.227722	-0.070981	-0.141860	1.643146	0.084909	-0.114724	1.632974	0.145889	-0.134833	1.917284	0.040449	-0.127542	1.905602	-0.005914	-0.158997	1.411357	0.014417	-0.173277	1.869617	0.045100	-0.170653	1.922963	0.035068	-0.166036	1.917505	0.007801	-0.166981	1.860179	0.001733	-0.146897	1.572782	-0.007048	-0.194585	1.549931	0.022091	-0.203081	1.496917	-0.011794	-0.152196	1.506947	-0.040806	0.085323	1.345902	0.008273	0.045002	1.321592	0.078016	0.049969	1.356960	0.032848	0.096073	1.305105	0.042474	0.021415	1.374937	-0.039757	0.032580	1.188904	0.084228	-0.126931	1.394642	-0.011484	0.039972	1.339695	0.062660
3471	34.710000	-0.030758	1.443903	-0.133280	-0.061404	1.227735	-0.070696	-0.143140	1.643398	0.083964	-0.116124	1.633581	0.145055	-0.137183	1.917281	0.038175	-0.129943	1.905385	-0.008143	-0.159052	1.411428	0.014474	-0.175224	1.869665	0.043279	-0.172944	1.922845	0.032819	-0.168602	1.917249	0.005581	-0.169240	1.859856	-0.000160	-0.147652	1.572613	-0.007823	-0.195306	1.549734	0.021350	-0.203510	1.496557	-0.012398	-0.152410	1.506646	-0.041272	0.085270	1.345998	0.008539	0.044938	1.321758	0.078288	0.049797	1.357013	0.033065	0.096013	1.305248	0.042769	0.021400	1.374998	-0.039561	0.032535	1.189083	0.084604	-0.126951	1.394573	-0.011390	0.039949	1.339862	0.062942
3472	34.720000	-0.030725	1.443885	-0.133172	-0.061373	1.227764	-0.070428	-0.144401	1.643636	0.083020	-0.117506	1.634169	0.144220	-0.139481	1.917258	0.035894	-0.132282	1.905140	-0.010372	-0.159104	1.411510	0.014530	-0.177353	1.869530	0.041278	-0.175323	1.922620	0.030598	-0.171036	1.916881	0.003292	-0.171399	1.859538	-0.002123	-0.148413	1.572453	-0.008485	-0.196017	1.549505	0.020560	-0.203970	1.496188	-0.012927	-0.152914	1.506292	-0.041765	0.085742	1.346293	0.008951	0.044828	1.321865	0.078552	0.049726	1.357117	0.033318	0.095933	1.305365	0.043151	0.021387	1.375066	-0.039364	0.032477	1.189256	0.084961	-0.126988	1.394499	-0.011299	0.039802	1.340152	0.062927
3473	34.730000	-0.030688	1.443877	-0.133061	-0.061344	1.227799	-0.070174	-0.145643	1.643859	0.082079	-0.118871	1.634735	0.143385	-0.141732	1.917214	0.033623	-0.134557	1.904878	-0.012589	-0.159158	1.411595	0.014582	-0.179450	1.869414	0.039306	-0.177656	1.922469	0.028306	-0.173438	1.916518	0.001030	-0.173511	1.859223	-0.004078	-0.149199	1.572302	-0.009123	-0.196728	1.549322	0.019913	-0.204427	1.495789	-0.013390	-0.153303	1.506026	-0.042178	0.085631	1.346361	0.009143	0.044732	1.322021	0.078794	0.049667	1.357217	0.033531	0.095866	1.305483	0.043435	0.021373	1.375137	-0.039168	0.032411	1.189423	0.085305	-0.127044	1.394421	-0.011212	0.039793	1.340207	0.063374
3474	34.740000	-0.030645	1.443884	-0.132945	-0.061319	1.227845	-0.069934	-0.146861	1.644067	0.081136	-0.120210	1.635279	0.142544	-0.143931	1.917152	0.031348	-0.136768	1.904594	-0.014806	-0.159210	1.411686	0.014634	-0.181494	1.869206	0.037320	-0.179865	1.922291	0.025984	-0.175624	1.916173	-0.001216	-0.175525	1.858821	-0.006039	-0.149950	1.572115	-0.009815	-0.197471	1.549025	0.019269	-0.204916	1.495396	-0.013849	-0.153777	1.505714	-0.042608	0.085649	1.346480	0.009420	0.044650	1.322172	0.079068	0.049607	1.357342	0.033777	0.095819	1.305615	0.043727	0.021361	1.375213	-0.038971	0.032337	1.189583	0.085634	-0.127117	1.394337	-0.011134	0.039718	1.340344	0.063601
3475	34.750000	-0.030600	1.443903	-0.132824	-0.061300	1.227899	-0.069703	-0.148049	1.644259	0.080189	-0.121516	1.635801	0.141694	-0.146080	1.917072	0.029067	-0.138914	1.904290	-0.017025	-0.159260	1.411784	0.014689	-0.183468	1.869078	0.035267	-0.182008	1.922061	0.023686	-0.177813	1.915784	-0.003514	-0.177549	1.858466	-0.007988	-0.150704	1.571985	-0.010459	-0.198242	1.548790	0.018639	-0.205359	1.495007	-0.014319	-0.154255	1.505379	-0.043074	0.085594	1.346571	0.009678	0.044587	1.322299	0.079420	0.049532	1.357457	0.033995	0.095751	1.305723	0.044008	0.021349	1.375292	-0.038774	0.032255	1.189738	0.085949	-0.127206	1.394247	-0.011070	0.039596	1.340553	0.063694
3476	34.760000	-0.030558	1.443924	-0.132700	-0.061285	1.227954	-0.069477	-0.149210	1.644435	0.079237	-0.122791	1.636301	0.140835	-0.148181	1.916975	0.026789	-0.140997	1.903974	-0.019239	-0.159311	1.411881	0.014748	-0.185439	1.868885	0.033245	-0.184185	1.921819	0.021345	-0.179999	1.915460	-0.005814	-0.179483	1.858077	-0.009961	-0.151487	1.571786	-0.011094	-0.198902	1.548544	0.017982	-0.205811	1.494626	-0.014796	-0.154614	1.505116	-0.043480	0.085491	1.346621	0.009886	0.044513	1.322437	0.079647	0.049602	1.357632	0.034283	0.095672	1.305836	0.044276	0.021335	1.375370	-0.038578	0.032172	1.189887	0.086257	-0.127311	1.394150	-0.011019	0.039506	1.340649	0.063930
3477	34.770000	-0.030518	1.443956	-0.132569	-0.061279	1.228017	-0.069255	-0.150334	1.644596	0.078275	-0.124022	1.636781	0.139960	-0.150228	1.916864	0.024496	-0.143018	1.903638	-0.021464	-0.159360	1.411984	0.014817	-0.187536	1.868611	0.031075	-0.186190	1.921576	0.019005	-0.182062	1.915056	-0.008128	-0.181367	1.857656	-0.011960	-0.152153	1.571596	-0.011759	-0.199589	1.548308	0.017280	-0.206191	1.494254	-0.015261	-0.154990	1.504821	-0.043893	0.085430	1.346670	0.010111	0.044478	1.322551	0.079855	0.049600	1.357798	0.034517	0.095597	1.305927	0.044514	0.021319	1.375450	-0.038381	0.032085	1.190031	0.086555	-0.127428	1.394045	-0.010988	0.039471	1.340721	0.064114
3478	34.780000	-0.030490	1.443984	-0.132436	-0.061279	1.228077	-0.069029	-0.151426	1.644744	0.077305	-0.125215	1.637241	0.139071	-0.152227	1.916737	0.022202	-0.144980	1.903292	-0.023689	-0.159411	1.412083	0.014897	-0.189383	1.868403	0.029104	-0.188228	1.921284	0.016696	-0.184070	1.914686	-0.010369	-0.183236	1.857205	-0.013886	-0.152856	1.571463	-0.012440	-0.200268	1.548053	0.016608	-0.206524	1.493896	-0.015735	-0.155428	1.504489	-0.044362	0.085363	1.346738	0.010364	0.044417	1.322676	0.080074	0.049542	1.357879	0.034730	0.095528	1.306061	0.044788	0.021298	1.375528	-0.038185	0.032001	1.190172	0.086852	-0.127557	1.393934	-0.010974	0.039335	1.340871	0.064353
3479	34.790000	-0.030474	1.444012	-0.132297	-0.061289	1.228135	-0.068796	-0.152482	1.644878	0.076323	-0.126364	1.637684	0.138165	-0.154175	1.916597	0.019895	-0.146884	1.902932	-0.025924	-0.159463	1.412182	0.014992	-0.191177	1.868190	0.027010	-0.190218	1.921046	0.014365	-0.186003	1.914298	-0.012643	-0.184989	1.856767	-0.015895	-0.153573	1.571271	-0.013150	-0.200947	1.547844	0.015947	-0.207012	1.493457	-0.016343	-0.155787	1.504204	-0.044766	0.085288	1.346789	0.010590	0.044316	1.322837	0.080306	0.049461	1.357947	0.034925	0.095460	1.306152	0.045022	0.021271	1.375603	-0.037987	0.031920	1.190311	0.087146	-0.127693	1.393815	-0.010978	0.039275	1.340981	0.064546
